<svg width="23" height="23" viewBox="0 0 23 23" fill="none" xmlns="http://www.w3.org/2000/svg">
<path d="M4.26934 17.2169L6.06092 12.3498C6.18699 12.0073 6.62563 11.9109 6.88369 12.169L9.9592 15.2445C10.2173 15.5025 10.1209 15.9412 9.77837 16.0672L4.91128 17.8588C4.51111 18.0061 4.12204 17.617 4.26934 17.2169Z" stroke="#D1D1D1"/>
<mask id="path-2-inside-1_72_14" fill="white">
<path d="M15.3726 2.17726C16.1536 1.39621 17.42 1.39621 18.201 2.17726L19.9508 3.92706C20.7319 4.70811 20.7319 5.97444 19.9508 6.75548L10.5706 16.1357C9.78959 16.9167 8.52327 16.9167 7.74222 16.1357L5.99242 14.3859C5.21137 13.6048 5.21137 12.3385 5.99242 11.5574L15.3726 2.17726Z"/>
</mask>
<path d="M14.6655 1.47015C15.8371 0.29858 17.7366 0.29858 18.9081 1.47015L20.6579 3.21995C21.8295 4.39152 21.8295 6.29102 20.6579 7.46259L19.2437 6.04838C19.6342 5.65785 19.6342 5.02469 19.2437 4.63416L17.4939 2.88437C17.1034 2.49384 16.4702 2.49384 16.0797 2.88437L14.6655 1.47015ZM9.15643 17.5499L4.57821 12.9716L9.15643 17.5499ZM5.99242 14.3859C4.82085 13.2143 4.82085 11.3148 5.99242 10.1432L14.6655 1.47015C15.8371 0.29858 17.7366 0.29858 18.9081 1.47015L17.4939 2.88437C17.1034 2.49384 16.4702 2.49384 16.0797 2.88437L6.69953 12.2645C5.91848 13.0456 5.60189 13.9953 5.99242 14.3859ZM20.6579 3.21995C21.8295 4.39152 21.8295 6.29102 20.6579 7.46259L11.9849 16.1357C10.8133 17.3072 8.91379 17.3072 7.74222 16.1357C8.13274 16.5262 9.08249 16.2096 9.86354 15.4285L19.2437 6.04838C19.6342 5.65785 19.6342 5.02469 19.2437 4.63416L20.6579 3.21995Z" fill="#D1D1D1" mask="url(#path-2-inside-1_72_14)"/>
<rect x="14.4979" y="3.75926" width="5.47459" height="2.23729" transform="rotate(45 14.4979 3.75926)" stroke="#D1D1D1"/>
</svg>
